<svg width="172" height="1071" viewBox="0 0 172 1071" fill="none" xmlns="http://www.w3.org/2000/svg">
<g clip-path="url(#clip0_213_1279)">
<rect width="172" height="1071" fill="#42B983" fill-opacity="0.8"/>
<ellipse rx="144.529" ry="155.605" transform="matrix(0.866025 -0.5 -0.5 -0.866025 -24.0313 -22.9778)" fill="url(#paint0_linear_213_1279)" fill-opacity="0.5"/>
<ellipse rx="124" ry="125.5" transform="matrix(-1 0 0 1 33 1040.5)" fill="url(#paint1_linear_213_1279)" fill-opacity="0.5"/>
<ellipse rx="3.36287" ry="3.54949" transform="matrix(-1 0 0 1 57.9179 963.425)" fill="#70FF87"/>
<ellipse rx="2.88246" ry="3.04242" transform="matrix(-1 0 0 1 46.8683 977.623)" fill="#70FF87"/>
<ellipse rx="6.24532" ry="6.59192" transform="matrix(-1 0 0 1 29.0933 991.314)" fill="#F3F5FB"/>
<ellipse rx="4.32368" ry="4.3101" transform="matrix(-1 0 0 1 42.0643 964.186)" fill="#F3F5FB"/>
<ellipse rx="2.40205" ry="2.53535" transform="matrix(-1 0 0 1 32.4561 975.088)" fill="#70FF87"/>
</g>
<defs>
<linearGradient id="paint0_linear_213_1279" x1="203.869" y1="13.2901" x2="162.903" y2="192.158" gradientUnits="userSpaceOnUse">
<stop stop-color="white"/>
<stop offset="1" stop-color="white" stop-opacity="0"/>
</linearGradient>
<linearGradient id="paint1_linear_213_1279" x1="28.531" y1="10.6356" x2="99.99" y2="119.422" gradientUnits="userSpaceOnUse">
<stop stop-color="#70FF87"/>
<stop offset="1" stop-color="#70FF87" stop-opacity="0"/>
</linearGradient>
<clipPath id="clip0_213_1279">
<rect width="172" height="1071" fill="white"/>
</clipPath>
</defs>
</svg>
