<?xml version="1.0" encoding="UTF-8"?>
<svg xmlns="http://www.w3.org/2000/svg" xmlns:xlink="http://www.w3.org/1999/xlink" viewBox="0 0 24 24" width="24px" height="24px">
<g id="surface36806577">
<path style=" stroke:none;fill-rule:nonzero;fill:rgb(100%,100%,100%);fill-opacity:1;" d="M 12 2 C 6.5 2 2 6.5 2 12 C 2 17.5 6.5 22 12 22 C 17.5 22 22 17.5 22 12 C 22 10.898438 21.800781 9.800781 21.5 8.800781 L 19.800781 10.402344 C 19.902344 10.902344 20 11.398438 20 12 C 20 16.398438 16.398438 20 12 20 C 7.601562 20 4 16.398438 4 12 C 4 7.601562 7.601562 4 12 4 C 13.601562 4 15.101562 4.5 16.402344 5.300781 L 17.800781 3.902344 C 16.199219 2.699219 14.199219 2 12 2 Z M 21.300781 3.300781 L 11 13.601562 L 7.699219 10.300781 L 6.300781 11.699219 L 11 16.402344 L 22.699219 4.699219 Z M 21.300781 3.300781 "/>
</g>
</svg>
