<svg width="121" height="169" viewBox="0 0 121 169" fill="none" xmlns="http://www.w3.org/2000/svg">
<path d="M32.64 8.76835C30.6323 10.776 27.3851 10.776 25.3774 8.76835C23.3698 6.76067 23.3698 3.51345 25.3774 1.50576C27.3851 -0.501921 30.6323 -0.501921 32.64 1.50576C34.6302 3.49599 34.6302 6.76067 32.64 8.76835ZM54.358 23.2062C52.3503 21.1985 49.103 21.1985 47.0954 23.2062C45.0877 25.2139 45.0877 28.4611 47.0954 30.4688C49.103 32.4765 52.3503 32.4765 54.358 30.4688C56.3482 28.4786 56.3482 25.2139 54.358 23.2062ZM76.0584 44.9241C74.0507 42.9164 70.8035 42.9164 68.7958 44.9241C66.7881 46.9318 66.7881 50.179 68.7958 52.1867C70.8035 54.1944 74.0507 54.1944 76.0584 52.1867C78.0661 50.179 78.0661 46.9318 76.0584 44.9241ZM97.7763 66.642C95.7686 64.6343 92.5214 64.6343 90.5137 66.642C88.506 68.6497 88.506 71.8969 90.5137 73.9046C92.5214 75.9123 95.7686 75.9123 97.7763 73.9046C99.784 71.8969 99.784 68.6497 97.7763 66.642ZM119.494 88.3599C117.487 86.3522 114.239 86.3522 112.232 88.3599C110.224 90.3676 110.224 93.6149 112.232 95.6226C114.239 97.6302 117.487 97.6302 119.494 95.6226C121.502 93.6149 121.502 90.3676 119.494 88.3599ZM10.9221 23.2062C8.91442 21.1985 5.66721 21.1985 3.65952 23.2062C1.65183 25.2139 1.65183 28.4611 3.65952 30.4688C5.66721 32.4765 8.91442 32.4765 10.9221 30.4688C12.9298 28.4786 12.9298 25.2139 10.9221 23.2062ZM32.64 44.9241C30.6323 42.9164 27.3851 42.9164 25.3774 44.9241C23.3698 46.9318 23.3698 50.179 25.3774 52.1867C27.3851 54.1944 30.6323 54.1944 32.64 52.1867C34.6302 50.179 34.6302 46.9318 32.64 44.9241ZM54.358 66.642C52.3503 64.6343 49.103 64.6343 47.0954 66.642C45.0877 68.6497 45.0877 71.8969 47.0954 73.9046C49.103 75.9123 52.3503 75.9123 54.358 73.9046C56.3482 71.8969 56.3482 68.6497 54.358 66.642ZM76.0584 88.3599C74.0507 86.3522 70.8035 86.3522 68.7958 88.3599C66.7881 90.3676 66.7881 93.6149 68.7958 95.6226C70.8035 97.6302 74.0507 97.6302 76.0584 95.6226C78.0661 93.6149 78.0661 90.3676 76.0584 88.3599ZM97.7763 110.078C95.7686 108.07 92.5214 108.07 90.5137 110.078C88.506 112.086 88.506 115.333 90.5137 117.34C92.5214 119.348 95.7686 119.348 97.7763 117.34C99.784 115.333 99.784 112.086 97.7763 110.078ZM-10.7958 44.9241C-12.8035 42.9164 -16.0507 42.9164 -18.0584 44.9241C-20.0661 46.9318 -20.0661 50.179 -18.0584 52.1867C-16.0507 54.1944 -12.8035 54.1944 -10.7958 52.1867C-8.78813 50.179 -8.78813 46.9318 -10.7958 44.9241ZM10.9221 66.642C8.91442 64.6343 5.66721 64.6343 3.65952 66.642C1.65183 68.6497 1.65183 71.8969 3.65952 73.9046C5.66721 75.9123 8.91442 75.9123 10.9221 73.9046C12.9298 71.8969 12.9298 68.6497 10.9221 66.642ZM32.64 88.3599C30.6323 86.3522 27.3851 86.3522 25.3774 88.3599C23.3698 90.3676 23.3698 93.6149 25.3774 95.6226C27.3851 97.6302 30.6323 97.6302 32.64 95.6226C34.6302 93.6149 34.6302 90.3676 32.64 88.3599ZM54.358 110.078C52.3503 108.07 49.103 108.07 47.0954 110.078C45.0877 112.086 45.0877 115.333 47.0954 117.34C49.103 119.348 52.3503 119.348 54.358 117.34C56.3482 115.333 56.3482 112.086 54.358 110.078ZM76.0584 131.796C74.0507 129.788 70.8035 129.788 68.7958 131.796C66.7881 133.803 66.7881 137.051 68.7958 139.058C70.8035 141.066 74.0507 141.066 76.0584 139.058C78.0661 137.051 78.0661 133.803 76.0584 131.796ZM-32.5137 66.642C-34.5214 64.6343 -37.7686 64.6343 -39.7763 66.642C-41.784 68.6497 -41.784 71.8969 -39.7763 73.9046C-37.7686 75.9123 -34.5214 75.9123 -32.5137 73.9046C-30.506 71.8969 -30.506 68.6497 -32.5137 66.642ZM-10.7958 88.3599C-12.8035 86.3522 -16.0507 86.3522 -18.0584 88.3599C-20.0661 90.3676 -20.0661 93.6149 -18.0584 95.6226C-16.0507 97.6302 -12.8035 97.6302 -10.7958 95.6226C-8.78813 93.6149 -8.78813 90.3676 -10.7958 88.3599ZM10.9221 110.078C8.91442 108.07 5.66721 108.07 3.65952 110.078C1.65183 112.086 1.65183 115.333 3.65952 117.34C5.66721 119.348 8.91442 119.348 10.9221 117.34C12.9298 115.333 12.9298 112.086 10.9221 110.078ZM32.64 131.796C30.6323 129.788 27.3851 129.788 25.3774 131.796C23.3698 133.803 23.3698 137.051 25.3774 139.058C27.3851 141.066 30.6323 141.066 32.64 139.058C34.6302 137.051 34.6302 133.803 32.64 131.796ZM54.358 153.514C52.3503 151.506 49.103 151.506 47.0954 153.514C45.0877 155.521 45.0877 158.769 47.0954 160.776C49.103 162.784 52.3503 162.784 54.358 160.776C56.3482 158.769 56.3482 155.521 54.358 153.514ZM-54.2316 88.3599C-56.2393 86.3522 -59.4866 86.3522 -61.4942 88.3599C-63.5019 90.3676 -63.5019 93.6149 -61.4942 95.6226C-59.4866 97.6302 -56.2393 97.6302 -54.2316 95.6226C-52.224 93.6149 -52.224 90.3676 -54.2316 88.3599ZM-32.5137 110.078C-34.5214 108.07 -37.7686 108.07 -39.7763 110.078C-41.784 112.086 -41.784 115.333 -39.7763 117.34C-37.7686 119.348 -34.5214 119.348 -32.5137 117.34C-30.506 115.333 -30.506 112.086 -32.5137 110.078ZM-10.7958 131.796C-12.8035 129.788 -16.0507 129.788 -18.0584 131.796C-20.0661 133.803 -20.0661 137.051 -18.0584 139.058C-16.0507 141.066 -12.8035 141.066 -10.7958 139.058C-8.78813 137.051 -8.78813 133.803 -10.7958 131.796ZM10.9221 153.514C8.91442 151.506 5.66721 151.506 3.65952 153.514C1.65183 155.521 1.65183 158.769 3.65952 160.776C5.66721 162.784 8.91442 162.784 10.9221 160.776C12.9298 158.769 12.9298 155.521 10.9221 153.514ZM32.64 175.232C30.6323 173.224 27.3851 173.224 25.3774 175.232C23.3698 177.239 23.3698 180.487 25.3774 182.494C27.3851 184.502 30.6323 184.502 32.64 182.494C34.6477 180.487 34.6302 177.239 32.64 175.232Z" fill="#23212A" fill-opacity="0.22"/>
</svg>
