<svg width="16" height="20" viewBox="0 0 16 20" fill="none" xmlns="http://www.w3.org/2000/svg">
<path fill-rule="evenodd" clip-rule="evenodd" d="M8.03129 9.45607C7.72894 9.15567 7.23875 9.15567 6.93641 9.45607L4.35579 12.0202C4.05345 12.3206 4.05345 12.8076 4.35579 13.108C4.65813 13.4084 5.14832 13.4084 5.45066 13.108L6.70966 11.8571V15.1282C6.70966 15.553 7.05627 15.8974 7.48385 15.8974C7.91143 15.8974 8.25804 15.553 8.25804 15.1282V11.8571L9.51708 13.108C9.81942 13.4084 10.3096 13.4084 10.612 13.108C10.9143 12.8076 10.9143 12.3206 10.612 12.0202L8.03129 9.45607Z" fill="#757D8A"/>
<path fill-rule="evenodd" clip-rule="evenodd" d="M8 1.53846C6.47514 1.53846 4.42753 1.70582 2.99542 1.8447C2.40117 1.90233 1.93741 2.3731 1.89141 2.96993C1.749 4.81754 1.54839 7.81282 1.54839 10C1.54839 12.1872 1.749 15.1825 1.89141 17.0301C1.93741 17.6269 2.40117 18.0977 2.99542 18.1553C4.42753 18.2942 6.47514 18.4615 8 18.4615C9.52486 18.4615 11.5725 18.2942 13.0046 18.1553C13.5988 18.0977 14.0626 17.6269 14.1086 17.0301C14.251 15.1825 14.4516 12.1872 14.4516 10C14.4516 9.29468 14.4307 8.50362 14.3975 7.69231H11.0976L11.0968 6.92308L11.0968 6.15385H14.321C14.1302 3.71619 12.228 1.7745 9.80645 1.59594V4.8718C9.80645 5.57985 10.3842 6.15385 11.0968 6.15385L11.0968 6.92308L11.0976 7.69231C9.5298 7.69231 8.25806 6.42952 8.25806 4.8718V1.53997C8.17048 1.53898 8.08439 1.53846 8 1.53846ZM9.0569 0.0206922C8.69107 0.00755799 8.33515 0 8 0C6.39353 0 4.28091 0.17427 2.84502 0.313513C1.49709 0.444226 0.450547 1.51605 0.34754 2.85245C0.205081 4.70071 0 7.74813 0 10C0 12.2519 0.205081 15.2993 0.34754 17.1475C0.450547 18.484 1.49709 19.5558 2.84502 19.6865C4.28091 19.8257 6.39353 20 8 20C9.60647 20 11.7191 19.8257 13.155 19.6865C14.5029 19.5558 15.5495 18.484 15.6525 17.1475C15.7949 15.2993 16 12.2519 16 10C16 9.0519 15.9637 7.9656 15.9114 6.8902C15.9112 6.88689 15.911 6.88359 15.9109 6.8803C15.8996 6.64894 15.8876 6.41812 15.875 6.1893C15.6948 2.90999 13.1178 0.227427 9.78273 0.0529805C9.54165 0.0403704 9.30174 0.0295389 9.06589 0.0210163" fill="#757D8A"/>
</svg>
