<svg width="35" height="31" viewBox="0 0 35 31" fill="none" xmlns="http://www.w3.org/2000/svg">
<path d="M33.0356 3.49285H16.2613L9.67701 29.788C9.47788 30.4889 8.9129 30.974 8.26416 30.9995C8.24586 30.9995 8.22818 31 8.21081 31C7.58333 31 7.01586 30.5668 6.78121 29.9023L4.08935 22.2681H1.53932C0.6889 22.2682 0 21.4861 0 20.5216C0 19.557 0.689598 18.7751 1.53932 18.7751H5.13186C5.76066 18.7751 6.32766 19.2097 6.56145 19.8732L8.05317 24.1037L13.6729 1.21231C13.8776 0.489817 14.47 0 15.1387 0H33.0357C33.8864 0 34.5753 0.782053 34.5753 1.74629C34.5753 2.71053 33.8858 3.49285 33.0356 3.49285ZM33.8652 26.9615L27.7967 19.2286L33.5796 11.9461C33.6818 11.8182 33.7066 11.6341 33.6461 11.4763C33.5837 11.3187 33.4462 11.2171 33.294 11.2171H29.6355C29.5237 11.2171 29.4182 11.2725 29.344 11.3684L25.4622 16.4748L21.6103 11.37C21.5375 11.273 21.4307 11.2171 21.3179 11.2171H17.4924C17.3407 11.2171 17.2032 11.3182 17.1418 11.4748C17.079 11.6318 17.1046 11.8157 17.2057 11.9439L22.924 19.2287L16.9034 26.9632C16.8028 27.0921 16.7789 27.2757 16.8404 27.4317C16.9034 27.5887 17.0409 27.6885 17.1915 27.6885H20.9834C21.0975 27.6885 21.2057 27.6314 21.2786 27.5315L25.2968 22.0615L29.4105 27.5357C29.4843 27.6334 29.5911 27.6891 29.7038 27.6891H33.5787C33.7308 27.6891 33.8683 27.5887 33.9297 27.4317C33.9917 27.2739 33.9669 27.0903 33.8652 26.9615Z" fill="white"/>
</svg>
