<svg width="130" height="30" viewBox="0 0 130 30" fill="none" xmlns="http://www.w3.org/2000/svg">
<path d="M31.27 6.84998H34.27V21.3H31.27V6.84998Z" fill="black"/>
<path fill-rule="evenodd" clip-rule="evenodd" d="M39.1978 11.4968C37.2324 12.3076 35.95 14.2238 35.9499 16.35C35.9311 17.7429 36.474 19.0846 37.4562 20.0724C38.4383 21.0603 39.777 21.6109 41.1699 21.6C43.2961 21.6121 45.2196 20.3407 46.0416 18.3799C46.8637 16.4192 46.422 14.1561 44.9229 12.6484C43.4238 11.1407 41.1633 10.686 39.1978 11.4968ZM41.151 14.1303C42.4021 14.1085 43.437 15.0991 43.4699 16.35H43.4499C43.4834 16.9663 43.2588 17.5687 42.83 18.0127C42.4013 18.4566 41.807 18.702 41.1899 18.69C39.9386 18.6896 38.9215 17.6807 38.9108 16.4295C38.9001 15.1782 39.8999 14.1521 41.151 14.1303Z" fill="black"/>
<path fill-rule="evenodd" clip-rule="evenodd" d="M58.26 20.81V11.4L55.37 11.46V12.46C54.6622 11.6018 53.5912 11.1274 52.48 11.18C49.7186 11.18 47.48 13.4186 47.48 16.18C47.48 18.9414 49.7186 21.18 52.48 21.18C53.5912 21.2325 54.6622 20.7582 55.37 19.9V20.81C55.4103 21.4053 55.1827 21.9874 54.7493 22.3976C54.316 22.8077 53.7222 23.0029 53.13 22.93C52.1899 23.0242 51.2898 22.5263 50.87 21.68L48.34 23.14C49.3209 24.7655 51.1378 25.6953 53.03 25.54C55.66 25.54 58.26 24.13 58.26 20.81ZM53.9598 13.8627C54.8526 14.2659 55.4108 15.1712 55.37 16.15C55.3886 16.7832 55.1382 17.3947 54.6808 17.833C54.2234 18.2713 53.6018 18.4955 52.97 18.45C51.9904 18.4491 51.1096 17.853 50.7447 16.9438C50.3799 16.0347 50.6042 14.995 51.3115 14.3172C52.0188 13.6394 53.067 13.4595 53.9598 13.8627Z" fill="black"/>
<path fill-rule="evenodd" clip-rule="evenodd" d="M63.1933 11.4987C61.2303 12.3107 59.9501 14.2257 59.9501 16.35C59.9339 17.7456 60.4804 19.0888 61.4663 20.0766C62.4523 21.0644 63.7945 21.6135 65.1901 21.6C67.3144 21.604 69.2318 20.3275 70.0475 18.366C70.8633 16.4046 70.4166 14.1448 68.9159 12.6412C67.4152 11.1377 65.1563 10.6867 63.1933 11.4987ZM65.1478 14.1304C66.4001 14.1068 67.4371 15.0978 67.4701 16.35H67.4601C67.4935 16.9663 67.2689 17.5687 66.8402 18.0127C66.4114 18.4566 65.8171 18.702 65.2001 18.69C63.9475 18.6951 62.9254 17.6887 62.911 16.4362C62.8966 15.1836 63.8954 14.1541 65.1478 14.1304Z" fill="black"/>
<path fill-rule="evenodd" clip-rule="evenodd" d="M73.5999 6.96997C72.6169 6.96997 71.8199 7.7669 71.8199 8.74997C71.8308 9.72852 72.6214 10.5192 73.5999 10.53C74.583 10.53 75.3799 9.73304 75.3799 8.74997C75.3799 7.7669 74.583 6.96997 73.5999 6.96997ZM75.1099 11.4H72.1099V21.3H75.1099V11.4Z" fill="black"/>
<path fill-rule="evenodd" clip-rule="evenodd" d="M86.6572 19.9673C87.5526 18.9818 88.018 17.6798 87.9501 16.35C88.0097 15.0253 87.5407 13.731 86.6462 12.7521C85.7516 11.7732 84.5048 11.1897 83.1801 11.13C82.0492 11.0507 80.9442 11.4927 80.1801 12.33V11.4H77.1801V25.28H80.1801V20.39C80.9432 21.2298 82.0478 21.6753 83.1801 21.6C84.5103 21.5405 85.7618 20.9529 86.6572 19.9673ZM82.5477 14.0504C83.8443 14.0268 84.9171 15.0537 84.9501 16.35C84.9962 16.9926 84.766 17.6243 84.3172 18.0865C83.8684 18.5487 83.2437 18.7973 82.6001 18.77C81.3033 18.7751 80.2453 17.7329 80.231 16.4362C80.2166 15.1395 81.2512 14.0741 82.5477 14.0504Z" fill="black"/>
<path d="M97.08 18.33C97.08 20.61 95.08 21.58 92.96 21.58C91.1908 21.7392 89.5032 20.8043 88.7 19.22L91.28 17.76C91.4906 18.4953 92.1869 18.9832 92.95 18.93C93.66 18.93 94.02 18.71 94.02 18.31C94.02 17.22 89.15 17.8 89.15 14.37C89.15 12.21 90.97 11.13 93.03 11.13C94.6253 11.0585 96.131 11.869 96.95 13.24L94.37 14.6C94.1371 14.0729 93.6161 13.7321 93.04 13.73C92.52 13.73 92.21 13.93 92.21 14.28C92.21 15.42 97.08 14.67 97.08 18.33Z" fill="black"/>
<path d="M107.95 11.4V21.3H104.95V20.37C104.259 21.2049 103.212 21.6615 102.13 21.6C100.13 21.6 98.42 20.17 98.42 17.5V11.4H101.42V17.05C101.372 17.5281 101.537 18.003 101.87 18.3494C102.202 18.6958 102.67 18.8788 103.15 18.85C104.23 18.85 104.99 18.21 104.99 16.85V11.4H107.95Z" fill="black"/>
<path d="M124.95 15.22V21.3H121.95V15.48C121.95 14.48 121.48 13.86 120.53 13.86C119.58 13.86 118.98 14.55 118.98 15.72V21.3H115.98V15.48C115.98 14.48 115.51 13.86 114.56 13.86C113.61 13.86 113.01 14.55 113.01 15.72V21.3H110.01V11.4H113.01V12.31C113.641 11.4933 114.641 11.0496 115.67 11.13C116.702 11.0762 117.686 11.5702 118.26 12.43C118.93 11.5325 120.014 11.0416 121.13 11.13C123.47 11.13 124.95 12.75 124.95 15.22Z" fill="black"/>
<path d="M13.4 4.25V0H0V29.2H13.4V24.95C7.68385 24.95 3.05 20.3161 3.05 14.6C3.05 8.88385 7.68385 4.25 13.4 4.25Z" fill="#4C81FF"/>
<path d="M13.4 4.25V24.95C19.1162 24.95 23.75 20.3161 23.75 14.6C23.75 8.88385 19.1162 4.25 13.4 4.25V4.25Z" fill="#FF784C"/>
<circle cx="127.47" cy="9.14" r="2.2" fill="#394149"/>
</svg>
