<svg width="102" height="121" viewBox="0 0 102 121" fill="none" xmlns="http://www.w3.org/2000/svg">
<path d="M36.118 4.38716C35.6016 3.52657 34.6716 3 33.668 3H6.04625C3.82541 3 2.45366 5.42278 3.59627 7.32713L34.4534 58.7557C34.9698 59.6163 35.8998 60.1429 36.9034 60.1429H64.5252C66.746 60.1429 68.1178 57.7201 66.9751 55.8157L36.118 4.38716Z" fill="#C52229"/>
<path fill-rule="evenodd" clip-rule="evenodd" d="M33.668 0.142853H6.04626C1.60458 0.142853 -1.13892 4.9884 1.1463 8.79712L32.0034 60.2257C33.0361 61.9469 34.8962 63 36.9034 63H64.5252C68.9669 63 71.7104 58.1544 69.4251 54.3457L38.568 2.91716C37.5353 1.19599 35.6753 0.142853 33.668 0.142853ZM33.668 3C34.6716 3 35.6017 3.52657 36.118 4.38715L66.9752 55.8157C68.1178 57.7201 66.746 60.1429 64.5252 60.1429H36.9034C35.8998 60.1429 34.9698 59.6163 34.4534 58.7557L3.59628 7.32713C2.45367 5.42277 3.82542 3 6.04626 3H33.668Z" fill="#9B0F15"/>
<path d="M65.882 4.38716C66.3984 3.52657 67.3284 3 68.332 3H95.9538C98.1746 3 99.5463 5.42278 98.4037 7.32713L67.5466 58.7557C67.0302 59.6163 66.1002 60.1429 65.0966 60.1429H37.4748C35.254 60.1429 33.8822 57.7201 35.0249 55.8157L65.882 4.38716Z" fill="#F1333B"/>
<path fill-rule="evenodd" clip-rule="evenodd" d="M68.332 0.142853H95.9537C100.395 0.142853 103.139 4.9884 100.854 8.79712L69.9966 60.2257C68.9639 61.9469 67.1038 63 65.0966 63H37.4748C33.0331 63 30.2896 58.1544 32.5749 54.3457L63.432 2.91716C64.4647 1.19599 66.3247 0.142853 68.332 0.142853ZM68.332 3C67.3284 3 66.3983 3.52657 65.882 4.38715L35.0248 55.8157C33.8822 57.7201 35.254 60.1429 37.4748 60.1429H65.0966C66.1002 60.1429 67.0302 59.6163 67.5466 58.7557L98.4037 7.32713C99.5463 5.42277 98.1746 3 95.9537 3H68.332Z" fill="#9B0F15"/>
<path fill-rule="evenodd" clip-rule="evenodd" d="M68.8602 4.62175C69.5425 5.01793 69.7745 5.8922 69.3783 6.5745L56.5212 28.7174C56.125 29.3997 55.2507 29.6316 54.5684 29.2354C53.8861 28.8393 53.6542 27.965 54.0503 27.2827L66.9075 5.13983C67.3036 4.45753 68.1779 4.22558 68.8602 4.62175Z" fill="#FE666D"/>
<path fill-rule="evenodd" clip-rule="evenodd" d="M5.99671 4.62175C5.31441 5.01793 5.08246 5.8922 5.47864 6.5745L18.3358 28.7174C18.732 29.3997 19.6062 29.6316 20.2885 29.2354C20.9708 28.8393 21.2028 27.965 20.8066 27.2827L7.94946 5.13983C7.55329 4.45753 6.67901 4.22558 5.99671 4.62175Z" fill="#DF3840"/>
<path d="M33.143 7.6875C33.143 8.69838 32.3435 9.51786 31.3573 9.51786C30.371 9.51786 29.5715 8.69838 29.5715 7.6875C29.5715 6.67663 30.371 5.85715 31.3573 5.85715C32.3435 5.85715 33.143 6.67663 33.143 7.6875Z" fill="#AA161D"/>
<path d="M26.8712 8.13393C26.8712 9.39137 25.8767 10.4107 24.65 10.4107C23.4232 10.4107 22.4287 9.39137 22.4287 8.13393C22.4287 6.8765 23.4232 5.85715 24.65 5.85715C25.8767 5.85715 26.8712 6.8765 26.8712 8.13393Z" fill="#AA161D"/>
<path d="M32.4288 14.6518C32.4288 15.9092 31.4343 16.9286 30.2076 16.9286C28.9808 16.9286 27.9863 15.9092 27.9863 14.6518C27.9863 13.3944 28.9808 12.375 30.2076 12.375C31.4343 12.375 32.4288 13.3944 32.4288 14.6518Z" fill="#AA161D"/>
<path d="M37.5069 11.5491C37.5069 12.1778 37.0097 12.6875 36.3963 12.6875C35.7829 12.6875 35.2856 12.1778 35.2856 11.5491C35.2856 10.9204 35.7829 10.4107 36.3963 10.4107C37.0097 10.4107 37.5069 10.9204 37.5069 11.5491Z" fill="#AA161D"/>
<path d="M25.7608 13.5134C25.7608 14.1421 25.2636 14.6518 24.6502 14.6518C24.0368 14.6518 23.5396 14.1421 23.5396 13.5134C23.5396 12.8847 24.0368 12.375 24.6502 12.375C25.2636 12.375 25.7608 12.8847 25.7608 13.5134Z" fill="#AA161D"/>
<path d="M19.5716 6.54911C19.5716 7.17783 19.0744 7.68751 18.461 7.68751C17.8476 7.68751 17.3503 7.17783 17.3503 6.54911C17.3503 5.9204 17.8476 5.41072 18.461 5.41072C19.0744 5.41072 19.5716 5.9204 19.5716 6.54911Z" fill="#AA161D"/>
<path d="M36.3965 19.4955C36.3965 20.1243 35.8993 20.6339 35.2859 20.6339C34.6725 20.6339 34.1753 20.1243 34.1753 19.4955C34.1753 18.8668 34.6725 18.3571 35.2859 18.3571C35.8993 18.3571 36.3965 18.8668 36.3965 19.4955Z" fill="#AA161D"/>
<path d="M30.6822 20.6339C30.6822 21.2627 30.1849 21.7723 29.5716 21.7723C28.9582 21.7723 28.4609 21.2627 28.4609 20.6339C28.4609 20.0052 28.9582 19.4955 29.5716 19.4955C30.1849 19.4955 30.6822 20.0052 30.6822 20.6339Z" fill="#AA161D"/>
<path d="M41.7578 16.5045C41.7578 17.5277 40.9486 18.3572 39.9503 18.3572C38.9521 18.3572 38.1428 17.5277 38.1428 16.5045C38.1428 15.4813 38.9521 14.6518 39.9503 14.6518C40.9486 14.6518 41.7578 15.4813 41.7578 16.5045Z" fill="#AA161D"/>
<path d="M44.1143 21.7723C44.1143 22.4011 43.6171 22.9107 43.0037 22.9107C42.3903 22.9107 41.8931 22.4011 41.8931 21.7723C41.8931 21.1436 42.3903 20.6339 43.0037 20.6339C43.6171 20.6339 44.1143 21.1436 44.1143 21.7723Z" fill="#AA161D"/>
<path d="M89.3119 78.9741C89.3119 100.133 72.1591 117.286 51.0002 117.286C29.8412 117.286 12.6885 100.133 12.6885 78.9741C12.6885 57.8151 29.8412 40.6624 51.0002 40.6624C72.1591 40.6624 89.3119 57.8151 89.3119 78.9741Z" fill="#FFBB0D"/>
<path fill-rule="evenodd" clip-rule="evenodd" d="M92.1498 78.9741C92.1498 101.7 73.7265 120.124 51.0002 120.124C28.2739 120.124 9.85059 101.7 9.85059 78.9741C9.85059 56.2478 28.2739 37.8245 51.0002 37.8245C73.7265 37.8245 92.1498 56.2478 92.1498 78.9741ZM51.0002 117.286C72.1591 117.286 89.3119 100.133 89.3119 78.9741C89.3119 57.8152 72.1591 40.6624 51.0002 40.6624C29.8412 40.6624 12.6885 57.8152 12.6885 78.9741C12.6885 100.133 29.8412 117.286 51.0002 117.286Z" fill="#E89B05"/>
<path fill-rule="evenodd" clip-rule="evenodd" d="M15.5265 80.3931C14.7428 80.3931 14.1075 79.7578 14.1075 78.9741C14.1075 58.5988 30.6249 42.0814 51.0002 42.0814C51.7839 42.0814 52.4192 42.7167 52.4192 43.5003C52.4192 44.284 51.7839 44.9193 51.0002 44.9193C32.1923 44.9193 16.9454 60.1661 16.9454 78.9741C16.9454 79.7578 16.3101 80.3931 15.5265 80.3931Z" fill="#E8AA0A"/>
<path fill-rule="evenodd" clip-rule="evenodd" d="M86.4741 77.5552C87.2577 77.5552 87.893 78.1905 87.893 78.9741C87.893 99.3494 71.3756 115.867 51.0003 115.867C50.2166 115.867 49.5813 115.232 49.5813 114.448C49.5813 113.664 50.2166 113.029 51.0003 113.029C69.8082 113.029 85.0551 97.7821 85.0551 78.9741C85.0551 78.1905 85.6904 77.5552 86.4741 77.5552Z" fill="#E8AA0A"/>
<path d="M79.3792 78.9741C79.3792 94.6474 66.6734 107.353 51.0001 107.353C35.3268 107.353 22.6211 94.6474 22.6211 78.9741C22.6211 63.3008 35.3268 50.5951 51.0001 50.5951C66.6734 50.5951 79.3792 63.3008 79.3792 78.9741Z" fill="#FFDD28"/>
<path fill-rule="evenodd" clip-rule="evenodd" d="M82.2171 78.9741C82.2171 96.2147 68.2408 110.191 51.0001 110.191C33.7595 110.191 19.7832 96.2147 19.7832 78.9741C19.7832 61.7335 33.7595 47.7572 51.0001 47.7572C68.2408 47.7572 82.2171 61.7335 82.2171 78.9741ZM51.0001 107.353C66.6734 107.353 79.3792 94.6474 79.3792 78.9741C79.3792 63.3008 66.6734 50.5951 51.0001 50.5951C35.3268 50.5951 22.6211 63.3008 22.6211 78.9741C22.6211 94.6474 35.3268 107.353 51.0001 107.353Z" fill="#E89B05"/>
<path fill-rule="evenodd" clip-rule="evenodd" d="M51.0001 103.096C64.3224 103.096 75.1223 92.2964 75.1223 78.9741C75.1223 78.1905 75.7576 77.5552 76.5413 77.5552C77.3249 77.5552 77.9602 78.1905 77.9602 78.9741C77.9602 93.8638 65.8898 105.934 51.0001 105.934C50.2165 105.934 49.5812 105.299 49.5812 104.515C49.5812 103.732 50.2165 103.096 51.0001 103.096Z" fill="#ECC704"/>
<path fill-rule="evenodd" clip-rule="evenodd" d="M51.0001 54.8519C37.6778 54.8519 26.8779 65.6518 26.8779 78.9741C26.8779 79.7578 26.2427 80.3931 25.459 80.3931C24.6753 80.3931 24.04 79.7578 24.04 78.9741C24.04 64.0845 36.1105 52.014 51.0001 52.014C51.7838 52.014 52.4191 52.6493 52.4191 53.433C52.4191 54.2167 51.7838 54.8519 51.0001 54.8519Z" fill="#FFEF9C"/>
<path d="M35.3916 75.2848L45.1469 73.2983L48.0735 68.332L51.0001 63.3656L56.8532 73.2983L66.6085 75.2848L58.8043 83.2309L60.7554 93.1636L51.0001 88.1973L41.2448 93.1636L43.1958 83.2309L35.3916 75.2848Z" fill="#FFEF9C"/>
<path fill-rule="evenodd" clip-rule="evenodd" d="M45.147 73.2983L51.0001 63.3656L56.8533 73.2983L66.6086 75.2848L58.8044 83.231L60.7554 93.1636L51.0001 88.1973L41.2449 93.1636L43.1959 83.231L35.3917 75.2848L45.147 73.2983ZM40.1228 84.1521L33.367 77.2734C32.6381 76.5312 32.3736 75.4497 32.6778 74.455C32.982 73.4602 33.8061 72.7116 34.8254 72.504L43.3432 70.7695L48.5552 61.9249C49.0653 61.0591 49.9953 60.5277 51.0001 60.5277C52.005 60.5277 52.9349 61.0591 53.4451 61.9249L58.6571 70.7695L67.1749 72.504C68.1942 72.7116 69.0183 73.4602 69.3225 74.455C69.6267 75.4497 69.3622 76.5312 68.6333 77.2734L61.8774 84.1521L63.5401 92.6166C63.7494 93.6821 63.3324 94.7736 62.466 95.4281C61.5995 96.0826 60.4356 96.1853 59.4679 95.6927L51.0001 91.3818L42.5324 95.6927C41.5647 96.1853 40.4008 96.0826 39.5343 95.4281C38.6679 94.7736 38.2509 93.6821 38.4602 92.6166L40.1228 84.1521Z" fill="#E89B05"/>
</svg>
