<svg width="28" height="27" viewBox="0 0 28 27" fill="none" xmlns="http://www.w3.org/2000/svg">
<path d="M14.0627 17.916C11.803 17.916 9.96899 16.082 9.96899 13.8223C9.96899 11.5625 11.803 9.72852 14.0627 9.72852C16.3225 9.72852 18.1565 11.5625 18.1565 13.8223C18.1565 16.082 16.3225 17.916 14.0627 17.916ZM14.0627 11.366C12.7091 11.366 11.6065 12.4686 11.6065 13.8223C11.6065 15.1759 12.7091 16.2785 14.0627 16.2785C15.4164 16.2785 16.519 15.1759 16.519 13.8223C16.519 12.4686 15.4164 11.366 14.0627 11.366Z" fill="#49BB88"/>
<path d="M17.5671 24.9464C17.3378 24.9464 17.1086 24.9137 16.8793 24.8591C16.2025 24.6735 15.6348 24.2478 15.2746 23.6474L15.1436 23.429C14.4995 22.3155 13.6152 22.3155 12.9711 23.429L12.8511 23.6364C12.4908 24.2478 11.9231 24.6844 11.2463 24.8591C10.5586 25.0447 9.84898 24.9464 9.24856 24.5862L7.37089 23.5054C6.70498 23.1234 6.22464 22.5011 6.01723 21.7479C5.82073 20.9946 5.91898 20.2195 6.30106 19.5536C6.61764 18.9969 6.70498 18.4947 6.51939 18.1781C6.33381 17.8615 5.86439 17.6759 5.22031 17.6759C3.62648 17.6759 2.32739 16.3769 2.32739 14.783V12.8617C2.32739 11.2679 3.62648 9.96877 5.22031 9.96877C5.86439 9.96877 6.33381 9.78319 6.51939 9.4666C6.70498 9.15002 6.62856 8.64785 6.30106 8.0911C5.91898 7.42518 5.82073 6.63918 6.01723 5.89685C6.21373 5.1436 6.69406 4.52135 7.37089 4.13927L9.25948 3.05852C10.4931 2.3271 12.1196 2.75285 12.862 4.00827L12.993 4.2266C13.6371 5.3401 14.5213 5.3401 15.1654 4.2266L15.2855 4.01918C16.0278 2.75285 17.6544 2.3271 18.8989 3.06943L20.7766 4.15018C21.4425 4.53227 21.9228 5.15452 22.1302 5.90777C22.3267 6.66102 22.2285 7.4361 21.8464 8.10202C21.5298 8.65877 21.4425 9.16094 21.6281 9.47752C21.8136 9.7941 22.2831 9.97968 22.9271 9.97968C24.521 9.97968 25.8201 11.2788 25.8201 12.8726V14.7939C25.8201 16.3878 24.521 17.6869 22.9271 17.6869C22.2831 17.6869 21.8136 17.8724 21.6281 18.189C21.4425 18.5056 21.5189 19.0078 21.8464 19.5645C22.2285 20.2304 22.3376 21.0164 22.1302 21.7588C21.9337 22.512 21.4534 23.1343 20.7766 23.5164L18.888 24.5971C18.4731 24.8264 18.0256 24.9464 17.5671 24.9464ZM14.0628 20.9073C15.0344 20.9073 15.9405 21.5186 16.5627 22.5994L16.6828 22.8068C16.8138 23.036 17.0321 23.1998 17.2941 23.2653C17.5561 23.3308 17.8181 23.298 18.0365 23.167L19.9251 22.0754C20.2089 21.9116 20.4272 21.6387 20.5146 21.3112C20.6019 20.9837 20.5582 20.6453 20.3945 20.3614C19.7722 19.2916 19.6958 18.189 20.1761 17.3484C20.6565 16.5079 21.6499 16.0275 22.8944 16.0275C23.5931 16.0275 24.1498 15.4708 24.1498 14.7721V12.8508C24.1498 12.163 23.5931 11.5954 22.8944 11.5954C21.6499 11.5954 20.6565 11.115 20.1761 10.2744C19.6958 9.43385 19.7722 8.33127 20.3945 7.26143C20.5582 6.9776 20.6019 6.63918 20.5146 6.31168C20.4272 5.98418 20.2198 5.72218 19.936 5.54752L18.0474 4.46677C17.578 4.18293 16.9557 4.34668 16.6719 4.82702L16.5518 5.03443C15.9296 6.11518 15.0235 6.72652 14.0519 6.72652C13.0803 6.72652 12.1742 6.11518 11.552 5.03443L11.4319 4.8161C11.159 4.3576 10.5476 4.19385 10.0782 4.46677L8.18964 5.55843C7.90581 5.72218 7.68748 5.9951 7.60014 6.3226C7.51281 6.6501 7.55648 6.98852 7.72023 7.27235C8.34248 8.34218 8.41889 9.44477 7.93856 10.2854C7.45823 11.1259 6.46481 11.6063 5.22031 11.6063C4.52164 11.6063 3.96489 12.163 3.96489 12.8617V14.783C3.96489 15.4708 4.52164 16.0384 5.22031 16.0384C6.46481 16.0384 7.45823 16.5188 7.93856 17.3594C8.41889 18.1999 8.34248 19.3025 7.72023 20.3724C7.55648 20.6562 7.51281 20.9946 7.60014 21.3221C7.68748 21.6496 7.89489 21.9116 8.17873 22.0863L10.0673 23.167C10.2966 23.3089 10.5695 23.3417 10.8206 23.2762C11.0826 23.2107 11.3009 23.036 11.4428 22.8068L11.5629 22.5994C12.1851 21.5295 13.0912 20.9073 14.0628 20.9073Z" fill="#49BB88"/>
</svg>
