<svg width="28" height="27" viewBox="0 0 28 27" fill="none" xmlns="http://www.w3.org/2000/svg">
<path fill-rule="evenodd" clip-rule="evenodd" d="M19.3035 20.2268H8.88963C8.29249 20.2268 7.80786 19.7847 7.80786 19.2399C7.80786 18.6951 8.29249 18.2529 8.88963 18.2529H19.3035C19.9006 18.2529 20.3852 18.6951 20.3852 19.2399C20.3852 19.7847 19.9006 20.2268 19.3035 20.2268" fill="#F3F5FB"/>
<path fill-rule="evenodd" clip-rule="evenodd" d="M19.3035 14.7176H8.88963C8.29249 14.7176 7.80786 14.2754 7.80786 13.7306C7.80786 13.1858 8.29249 12.7437 8.88963 12.7437H19.3035C19.9006 12.7437 20.3852 13.1858 20.3852 13.7306C20.3852 14.2754 19.9006 14.7176 19.3035 14.7176" fill="#F3F5FB"/>
<path fill-rule="evenodd" clip-rule="evenodd" d="M12.8631 9.22097H8.88939C8.29225 9.22097 7.80762 8.77882 7.80762 8.23402C7.80762 7.68922 8.29225 7.24707 8.88939 7.24707H12.8631C13.4602 7.24707 13.9449 7.68922 13.9449 8.23402C13.9449 8.77882 13.4602 9.22097 12.8631 9.22097" fill="#F3F5FB"/>
<mask id="mask0_553_2307" style="mask-type:alpha" maskUnits="userSpaceOnUse" x="0" y="0" width="28" height="27">
<path fill-rule="evenodd" clip-rule="evenodd" d="M0.962769 0.522461H27.1628V26.7225H0.962769V0.522461Z" fill="white"/>
</mask>
<g mask="url(#mask0_553_2307)">
<path fill-rule="evenodd" clip-rule="evenodd" d="M19.5819 2.49628L8.49163 2.50154C5.13382 2.51997 3.12606 4.41491 3.12606 7.57184V19.6732C3.12606 22.8512 5.15257 24.7487 8.54355 24.7487L19.6338 24.7448C22.9917 24.7264 24.9994 22.8288 24.9994 19.6732V7.57184C24.9994 4.39386 22.9743 2.49628 19.5819 2.49628ZM8.545 26.7227C4.01023 26.7227 0.962524 23.8895 0.962524 19.6733V7.57192C0.962524 3.31751 3.91503 0.552727 8.48442 0.527725L19.5805 0.522461H19.5819C24.1167 0.522461 27.163 3.35567 27.163 7.57192V19.6733C27.163 23.9264 24.2105 26.6925 19.6411 26.7188L8.545 26.7227Z" fill="#F3F5FB"/>
</g>
</svg>
