<svg width="27" height="28" viewBox="0 0 27 28" fill="none" xmlns="http://www.w3.org/2000/svg">
<path d="M9.65517 25.2865V21.4531C9.65515 20.4781 10.4671 19.6858 11.4731 19.6793H15.1582C16.1691 19.6793 16.9885 20.4734 16.9885 21.4531V21.4531V25.2984C16.9883 26.1263 17.67 26.8029 18.5239 26.8223H20.9807C23.4297 26.8223 25.415 24.8981 25.415 22.5246V22.5246V11.6196C25.402 10.6858 24.9496 9.80895 24.1867 9.23856L15.7847 2.67889C14.3128 1.53672 12.2203 1.53672 10.7484 2.67889L2.38327 9.25046C1.61746 9.81854 1.16434 10.6968 1.15491 11.6315V22.5246C1.15491 24.8981 3.14025 26.8223 5.58929 26.8223H8.04602C8.92116 26.8223 9.6306 26.1347 9.6306 25.2865V25.2865" stroke="#F3F5FB" stroke-width="2" stroke-linecap="round" stroke-linejoin="round"/>
</svg>
