<svg width="17" height="22" viewBox="0 0 17 22" fill="none" xmlns="http://www.w3.org/2000/svg">
<path d="M6.6193 19.6799H10.5588C10.4284 19.8775 10.2024 20.1929 9.9153 20.496C9.46047 20.976 8.98882 21.2799 8.58903 21.2799C8.18924 21.2799 7.71759 20.976 7.26276 20.496C6.97563 20.1929 6.74969 19.8775 6.6193 19.6799ZM8.47235 1.47988C8.86058 1.47988 9.19857 1.66955 9.40208 2.00332C8.61612 2.78262 8.10571 3.87669 8.10571 5.07988C8.10571 7.46464 10.0545 9.41322 12.4394 9.41322C13.0709 9.41322 13.6797 9.27378 14.2265 9.02852L14.5243 12.8438C14.5411 13.1272 14.6222 13.4549 14.7165 13.7407C14.8125 14.0319 14.9398 14.3331 15.0752 14.5586L15.0751 14.5587L15.0814 14.5687L15.9443 15.9446C15.9444 15.9447 15.9445 15.9449 15.9446 15.9451C16.3432 16.583 16.3444 17.0861 16.1629 17.41C15.9765 17.7428 15.5462 18.0132 14.7963 18.0132H8.47235H2.17179C1.42181 18.0132 0.991497 17.7428 0.805109 17.41C0.617307 17.0747 0.610679 16.5683 1.00017 15.945C1.00025 15.9448 1.00034 15.9447 1.00042 15.9446L1.86335 14.5687L1.86345 14.5687L1.86953 14.5586C2.00486 14.3331 2.13223 14.0319 2.22824 13.7407C2.32248 13.4548 2.40364 13.127 2.42042 12.8436L2.79329 8.02003C2.7933 8.01998 2.7933 8.01992 2.79331 8.01986C2.98382 5.58665 4.68137 3.47522 7.03014 2.68525L7.32025 2.58767L7.41156 2.29553C7.57194 1.78235 7.98208 1.47988 8.47235 1.47988Z" fill="white" stroke="#757D8A" stroke-width="1.2"/>
<path d="M15.6399 4.65997C15.6399 6.05606 14.4959 7.19997 13.0999 7.19997C11.7038 7.19997 10.5599 6.05606 10.5599 4.65997C10.5599 3.26388 11.7038 2.11997 13.0999 2.11997C14.4959 2.11997 15.6399 3.26388 15.6399 4.65997Z" fill="#FF0404" stroke="#757D8A" stroke-width="0.8"/>
</svg>
