<svg width="112" height="116" viewBox="0 0 112 116" fill="none" xmlns="http://www.w3.org/2000/svg">
<path fill-rule="evenodd" clip-rule="evenodd" d="M91.4171 -24.4525C111.305 -25.5775 135.856 -33.0442 149.706 -22.184C164.045 -10.9404 150.739 7.93168 152.566 23.4967C153.843 34.3711 160.255 44.2388 158.781 55.0989C156.973 68.4217 154.609 82.2384 143.205 92.4796C129.966 104.369 111.835 113.872 91.4171 115.596C69.847 117.417 46.4616 113.121 30.4938 101.996C15.1691 91.3188 14.7967 73.9153 9.66462 58.6371C4.92924 44.5399 -3.73599 30.425 1.77135 16.4893C7.3367 2.40692 22.5044 -8.33469 39.133 -15.9291C54.7798 -23.0751 73.193 -23.4216 91.4171 -24.4525Z" fill="#FFC278"/>
</svg>
